<svg xmlns="http://www.w3.org/2000/svg" width="985.084" height="293.927" viewBox="0 0 985.084 293.927">
  <g id="Group_15" data-name="Group 15" transform="translate(-652.626 -743.94)">
    <g id="Group_2" data-name="Group 2">
      <g id="Group_1" data-name="Group 1">
        <path id="Path_1" data-name="Path 1" d="M652.626,1014.013l29.293-41.063c16.61,10.869,41.976,18.42,62.21,18.42,20.531,0,24.156-1.815,24.156-8.156,0-5.132-4.23-7.249-23.254-9.064-44.088-3.922-80.629-9.658-80.629-59.18,0-38.059,22.648-57.386,80.629-57.386,28.688,0,58.283,5.142,77.912,16.312l-26.878,44.088c-12.078-6.039-32.912-10.868-48.917-10.868-20.536,0-22.951,2.712-22.951,8.156,0,4.829,3.02,6.936,21.137,8.751,44.995,4.527,81.234,9.064,81.234,54.966,0,40.156-20.839,58.283-86.064,58.283C707.285,1037.272,675.577,1029.721,652.626,1014.013Z" fill="#fff"/>
        <path id="Path_2" data-name="Path 2" d="M851.673,800.213h60.4v48.62h-60.4Zm.3,61.3h59.8V1034.55h-59.8Z" fill="#fff"/>
        <path id="Path_3" data-name="Path 3" d="M947.129,864.833l46.5-3.62,6.044,18.117c7.546-10.263,28.386-19.024,53.146-19.931v57.678c-39.863.3-45.9,12.078-45.9,35.639v81.834h-59.79Z" fill="#fff"/>
        <path id="Path_4" data-name="Path 4" d="M1077.608,800.213h60.4v48.62h-60.4Zm.3,61.3h59.8V1034.55h-59.8Z" fill="#fff"/>
        <path id="Path_5" data-name="Path 5" d="M1172.152,948.784V861.516h59.8v88.478c0,21.747,1.2,35.337,27.478,35.337,25.971,0,27.181-13.893,27.181-35.337V861.516h58.882v87.268c0,65.834-20.834,89.083-86.668,89.083C1193.293,1037.867,1172.152,1014.921,1172.152,948.784Z" fill="#fff"/>
        <path id="Path_6" data-name="Path 6" d="M1361.243,1014.013l29.293-41.063c16.61,10.869,41.975,18.42,62.21,18.42,20.531,0,24.156-1.815,24.156-8.156,0-5.132-4.23-7.249-23.254-9.064-44.088-3.922-80.63-9.658-80.63-59.18,0-38.059,22.649-57.386,80.63-57.386,28.688,0,58.283,5.142,77.912,16.312l-26.878,44.088c-12.078-6.039-32.912-10.868-48.917-10.868-20.537,0-22.951,2.712-22.951,8.156,0,4.829,3.019,6.936,21.136,8.751,45,4.527,81.235,9.064,81.235,54.966,0,40.156-20.84,58.283-86.064,58.283C1415.9,1037.272,1384.194,1029.721,1361.243,1014.013Z" fill="#fff"/>
      </g>
    </g>
    <g id="Group_3" data-name="Group 3">
      <path id="Path_7" data-name="Path 7" d="M1513.108,743.94h-39.887v81.589a182.9,182.9,0,0,1,39.887,7.261Z" fill="#fff"/>
      <path id="Path_8" data-name="Path 8" d="M1560.071,853.786l54.383-54.382-28.2-28.2-63.514,63.513a111.983,111.983,0,0,1,17.73,7.921Z" fill="#fff"/>
      <path id="Path_9" data-name="Path 9" d="M1637.71,905.106V865.219h-68.055l-24.318,39.887Z" fill="#fff"/>
    </g>
    <path id="Path_10" data-name="Path 10" d="M1361.243,1014.013l29.293-41.063c16.61,10.869,41.975,18.42,62.21,18.42,20.531,0,24.156-1.815,24.156-8.156,0-5.132-4.23-7.249-23.254-9.064-44.088-3.922-80.63-9.658-80.63-59.18,0-38.059,22.649-57.386,80.63-57.386,28.688,0,58.283,5.142,77.912,16.312l-26.878,44.088c-12.078-6.039-32.912-10.868-48.917-10.868-20.537,0-22.951,2.712-22.951,8.156,0,4.829,3.019,6.936,21.136,8.751,45,4.527,81.235,9.064,81.235,54.966,0,40.156-20.84,58.283-86.064,58.283C1415.9,1037.272,1384.194,1029.721,1361.243,1014.013Z" fill="#fff"/>
  </g>
</svg>
