<svg xmlns="http://www.w3.org/2000/svg" viewBox="0 0 118.14 137.43"><defs><style>.cls-1{fill:#c3a572;}</style></defs><g id="Layer_2" data-name="Layer 2"><g id="Layer_1-2" data-name="Layer 1"><path class="cls-1" d="M46.54,125.15c-6.66,11.53-21.77,15.68-33.76,9.27S-3.53,113.48,3.13,102,24.91,86.28,36.9,92.69s16.31,20.94,9.64,32.46M82.65,83.72c-.19-17.78-8.31-27.31-17.76-33.08C63.77,49.74,39.2,35.24,28,57,19.3,74.11,36.43,85.15,41.61,87.75,54.15,94,60.25,111.94,53.39,123.82a24.94,24.94,0,0,1-7.74,8.23c-.7.66-1.13,1-1.13,1S83,120.91,82.65,83.72M86.58,3.37C74.66-2.58,56-1.07,48.53,11.26c-5.3,8.72-4.4,22,8.36,26.74,14.17,5.28,23.24,15.66,25.34,18.7,4,6.44,7.67,13.79,7.7,25.07C90,107.9,71.75,120,71.75,120s46.89-13.39,46.38-60.72C117.94,41,110.72,15.39,86.58,3.37"/></g></g></svg>